<?xml version="1.0" encoding="UTF-8" standalone="no"?>
<!-- Created for MapSVG plugin: http://mapsvg.com -->
<svg
   xmlns:mapsvg="http://mapsvg.com"
   xmlns:dc="http://purl.org/dc/elements/1.1/"
   xmlns:rdf="http://www.w3.org/1999/02/22-rdf-syntax-ns#"
   xmlns:svg="http://www.w3.org/2000/svg"
   xmlns="http://www.w3.org/2000/svg"
   mapsvg:geoViewBox="3.359403 53.560406 7.227496 50.750938"
   width="612.54211"
   height="723.61865">
  
  <path
     d="M 8.865513,23.73727 C 8.6537347,23.549608 8.5783566,23.490633 7.8126255,22.913493 6.8835912,22.21327 5.5998399,21.438326 4.7281853,21.051551 4.3832269,20.898485 4.0394899,20.780631 3.546409,20.646368 3.033884,20.50681 2.8437117,20.428924 2.6720682,20.288274 2.1607796,19.869312 2.2289623,19.174649 2.8519575,18.455517 3.1465271,18.11549 3.5691966,17.854214 4.0716034,17.701582 c 0.1671016,-0.05076 0.7742171,-0.05046 0.9398214,4.65e-4 0.331767,0.102032 0.4786425,0.159386 0.7463288,0.291438 0.2880498,0.142097 0.3660691,0.18415 0.8983588,0.484221 0.1520299,0.0857 0.4381227,0.234058 0.6357616,0.329675 0.3445366,0.166684 0.4071318,0.195191 0.5459257,0.248624 0.034207,0.01317 0.093291,0.03679 0.1312986,0.05249 0.090858,0.03754 0.2065689,0.07523 0.3593435,0.117055 0.068414,0.01873 0.1554852,0.04391 0.1934926,0.05595 0.072092,0.02284 0.2735354,0.06053 0.5827422,0.109013 0.2468993,0.03872 0.6072551,0.03425 0.8380335,-0.01039 l 0.1907149,-0.03689 -0.01664,0.431803 c -0.03557,0.922761 -0.2935167,1.965049 -0.8080618,3.26509 -0.2433737,0.614904 -0.3132118,0.774231 -0.3389007,0.77316 -0.010691,-4.45e-4 -0.057629,-0.03465 -0.1043075,-0.07602 z"
     title="Drenthe"
     id="NL-DR" />
  <path
     d="m 11.97716,13.653897 c -0.09882,-0.0214 -0.248085,-0.06587 -0.331701,-0.09883 -0.171221,-0.06749 -0.708617,-0.337695 -0.777545,-0.390951 -0.03485,-0.02693 -0.05856,-0.159663 -0.10484,-0.587025 -0.113627,-1.049246 -0.148212,-1.335729 -0.278571,-2.307484 -0.02325,-0.173315 -0.0604,-0.452702 -0.110255,-0.8292539 -0.0221,-0.166951 -0.05177,-0.3777178 -0.11088,-0.7877915 C 10.25022,8.5613456 10.225342,8.3872023 10.208085,8.2655783 10.190827,8.1439543 10.165949,7.969811 10.152801,7.878593 10.139653,7.787375 10.115615,7.6163413 10.099385,7.4985181 10.083155,7.3806949 10.056596,7.1878933 10.040366,7.0700701 10.024136,6.9522469 9.9994676,6.7749938 9.9855477,6.6761743 9.8345441,5.6041761 9.7649418,4.6416789 9.7956515,4.0502026 9.8286852,3.4139727 9.9475599,3.0209103 10.184954,2.76296 c 0.25886,-0.2812733 0.50721,-0.3725942 1.028833,-0.3783113 0.315623,-0.00346 0.382252,0.00394 0.514597,0.057149 0.344148,0.1383634 0.54289,0.4305821 0.717908,1.0555685 0.01916,0.068413 0.04464,0.1554852 0.05663,0.1934927 0.03166,0.1003787 0.07413,0.2920683 0.110248,0.4975525 0.01737,0.098819 0.04231,0.2356464 0.05543,0.3040599 0.03341,0.174192 0.07462,0.4430457 0.110173,0.718687 0.01667,0.1292255 0.04179,0.3095883 0.05584,0.4008062 0.01404,0.091218 0.05153,0.3586525 0.08331,0.5942989 0.09074,0.6729097 0.244522,1.7656678 0.275214,1.9556579 0.01535,0.095019 0.04111,0.2567233 0.05725,0.3593435 0.01614,0.1026202 0.04007,0.2425569 0.05319,0.3109704 0.01312,0.068413 0.03728,0.199021 0.05369,0.2902389 0.275496,1.5314009 0.635241,2.8301359 0.915687,3.3057729 l 0.08795,0.149167 -0.06401,0.12066 c -0.09696,0.182769 -0.411407,0.502575 -0.609334,0.619716 -0.30819,0.1824 -1.01561,0.379594 -1.351054,0.376608 -0.09882,-8.79e-4 -0.260524,-0.0191 -0.359344,-0.0405 z"
     title="Flevoland"
     id="NL-FL" />
  <path
     d="m 15.446207,12.767921 c -0.03041,-0.0078 -0.11359,-0.03269 -0.184854,-0.05543 -0.210177,-0.06705 -0.372885,-0.280439 -0.579797,-0.760374 -0.08657,-0.200805 -0.106066,-0.278764 -0.106066,-0.424165 0,-0.09798 -0.01176,-0.299909 -0.02613,-0.448735 C 14.53499,10.930392 14.51002,10.65936 14.49387,10.476924 14.47772,10.294487 14.440274,9.8715673 14.410656,9.5371015 14.27963,8.0574797 14.252419,7.6520883 14.20192,6.4273981 14.154852,5.2859089 14.148248,3.329757 14.189398,2.7186843 14.27512,1.4457587 14.547574,0.79728414 15.05818,0.65087469 c 0.06138,-0.0176013 0.149809,-0.0435983 0.196497,-0.0577712 0.113987,-0.0346021 0.639819,-0.0331131 0.661441,0.001873 0.0094,0.015203 0.04282,0.0276418 0.07428,0.0276418 0.08197,0 0.338875,0.15351908 0.42178,0.25204618 0.321534,0.38212133 0.517193,1.35960093 0.621804,3.10643353 0.05349,0.8931159 0.05971,1.0260409 0.08544,1.8243593 0.03982,1.2355435 0.122507,2.9736253 0.163061,3.4275842 0.01494,0.1672329 0.04,0.459545 0.0557,0.6495825 0.07871,0.953156 0.190139,1.835215 0.268463,2.125106 0.01528,0.05654 -0.02313,0.105521 -0.272949,0.348186 -0.425784,0.413586 -0.418505,0.411033 -1.195882,0.419317 -0.349977,0.0037 -0.661199,4.39e-4 -0.691605,-0.0073 z"
     title="Friesland"
     id="NL-FR" />
  <path
     d="m 19.965643,12.729121 c -0.296431,-0.02934 -0.827353,-0.127739 -1.133314,-0.210041 -0.293513,-0.07895 -0.556823,-0.206645 -0.63743,-0.30912 -0.116356,-0.147923 -0.132113,-0.409672 -0.05524,-0.917602 0.159225,-1.052049 0.193503,-1.7529393 0.222377,-4.5470771 0.02569,-2.4861142 0.04066,-2.8142186 0.163943,-3.5934351 0.130452,-0.8245291 0.367679,-1.324777 0.708343,-1.493703 0.09034,-0.0448 0.167101,-0.054238 0.441081,-0.054238 0.450891,0 0.607306,0.050482 0.817751,0.2639232 0.174691,0.1771792 0.251708,0.30351 0.378353,0.6206146 0.388164,0.9719208 0.503977,2.3724232 0.503787,6.092181 -8.3e-5,1.8151954 0.04301,2.7099204 0.161631,3.3552574 l 0.0497,0.270358 -0.229589,0.164222 c -0.312343,0.223417 -0.420644,0.274262 -0.712482,0.334495 -0.263895,0.05446 -0.343995,0.05732 -0.678908,0.02416 z"
     title="Gelderland"
     id="NL-GE" />
  <path
     d="m 24.415974,13.903778 c -0.799741,-0.125386 -1.750286,-0.524168 -2.042372,-0.856835 -0.148104,-0.16868 -0.266815,-0.495513 -0.222406,-0.612319 0.07821,-0.205706 0.215955,-0.955192 0.298837,-1.625999 0.11513,-0.9318118 0.154745,-1.5775852 0.197548,-3.220271 0.01604,-0.6157213 0.0416,-1.2438814 0.05678,-1.3959113 0.04751,-0.4755942 0.08429,-0.77038 0.108647,-0.870717 0.01292,-0.05321 0.03758,-0.1713792 0.0548,-0.2625971 0.112616,-0.5965545 0.3552,-1.0118162 0.670247,-1.147346 0.192148,-0.08266 0.608848,-0.088159 0.743007,-0.00981 0.42524,0.2483534 0.608787,1.1724759 0.691001,3.4790637 0.03387,0.9501286 0.02004,2.8641377 -0.02945,4.0771667 -0.01458,0.35727 -0.0391,0.962093 -0.0545,1.34405 -0.0154,0.381956 -0.03642,0.795547 -0.04673,0.91909 l -0.01873,0.224623 -0.08586,-0.0027 c -0.04722,-0.0015 -0.191592,-0.01925 -0.320817,-0.03951 z"
     title="Groningen"
     id="NL-GR" />

<?xml version="1.0" encoding="UTF-8" standalone="no"?>
<!-- Created for MapSVG plugin: http://mapsvg.com -->
<svg
   xmlns:mapsvg="http://mapsvg.com"
   xmlns:dc="http://purl.org/dc/elements/1.1/"
   xmlns:rdf="http://www.w3.org/1999/02/22-rdf-syntax-ns#"
   xmlns:svg="http://www.w3.org/2000/svg"
   xmlns="http://www.w3.org/2000/svg"
   mapsvg:geoViewBox="3.359403 53.560406 7.227496 50.750938"
   width="612.54211"
   height="723.61865">
  
  <path
     d="M 8.865513,23.73727 C 8.6537347,23.549608 8.5783566,23.490633 7.8126255,22.913493 6.8835912,22.21327 5.5998399,21.438326 4.7281853,21.051551 4.3832269,20.898485 4.0394899,20.780631 3.546409,20.646368 3.033884,20.50681 2.8437117,20.428924 2.6720682,20.288274 2.1607796,19.869312 2.2289623,19.174649 2.8519575,18.455517 3.1465271,18.11549 3.5691966,17.854214 4.0716034,17.701582 c 0.1671016,-0.05076 0.7742171,-0.05046 0.9398214,4.65e-4 0.331767,0.102032 0.4786425,0.159386 0.7463288,0.291438 0.2880498,0.142097 0.3660691,0.18415 0.8983588,0.484221 0.1520299,0.0857 0.4381227,0.234058 0.6357616,0.329675 0.3445366,0.166684 0.4071318,0.195191 0.5459257,0.248624 0.034207,0.01317 0.093291,0.03679 0.1312986,0.05249 0.090858,0.03754 0.2065689,0.07523 0.3593435,0.117055 0.068414,0.01873 0.1554852,0.04391 0.1934926,0.05595 0.072092,0.02284 0.2735354,0.06053 0.5827422,0.109013 0.2468993,0.03872 0.6072551,0.03425 0.8380335,-0.01039 l 0.1907149,-0.03689 -0.01664,0.431803 c -0.03557,0.922761 -0.2935167,1.965049 -0.8080618,3.26509 -0.2433737,0.614904 -0.3132118,0.774231 -0.3389007,0.77316 -0.010691,-4.45e-4 -0.057629,-0.03465 -0.1043075,-0.07602 z"
     title="Drenthe"
     id="NL-DR" />
  <path
     d="m 11.97716,13.653897 c -0.09882,-0.0214 -0.248085,-0.06587 -0.331701,-0.09883 -0.171221,-0.06749 -0.708617,-0.337695 -0.777545,-0.390951 -0.03485,-0.02693 -0.05856,-0.159663 -0.10484,-0.587025 -0.113627,-1.049246 -0.148212,-1.335729 -0.278571,-2.307484 -0.02325,-0.173315 -0.0604,-0.452702 -0.110255,-0.8292539 -0.0221,-0.166951 -0.05177,-0.3777178 -0.11088,-0.7877915 C 10.25022,8.5613456 10.225342,8.3872023 10.208085,8.2655783 10.190827,8.1439543 10.165949,7.969811 10.152801,7.878593 10.139653,7.787375 10.115615,7.6163413 10.099385,7.4985181 10.083155,7.3806949 10.056596,7.1878933 10.040366,7.0700701 10.024136,6.9522469 9.9994676,6.7749938 9.9855477,6.6761743 9.8345441,5.6041761 9.7649418,4.6416789 9.7956515,4.0502026 9.8286852,3.4139727 9.9475599,3.0209103 10.184954,2.76296 c 0.25886,-0.2812733 0.50721,-0.3725942 1.028833,-0.3783113 0.315623,-0.00346 0.382252,0.00394 0.514597,0.057149 0.344148,0.1383634 0.54289,0.4305821 0.717908,1.0555685 0.01916,0.068413 0.04464,0.1554852 0.05663,0.1934927 0.03166,0.1003787 0.07413,0.2920683 0.110248,0.4975525 0.01737,0.098819 0.04231,0.2356464 0.05543,0.3040599 0.03341,0.174192 0.07462,0.4430457 0.110173,0.718687 0.01667,0.1292255 0.04179,0.3095883 0.05584,0.4008062 0.01404,0.091218 0.05153,0.3586525 0.08331,0.5942989 0.09074,0.6729097 0.244522,1.7656678 0.275214,1.9556579 0.01535,0.095019 0.04111,0.2567233 0.05725,0.3593435 0.01614,0.1026202 0.04007,0.2425569 0.05319,0.3109704 0.01312,0.068413 0.03728,0.199021 0.05369,0.2902389 0.275496,1.5314009 0.635241,2.8301359 0.915687,3.3057729 l 0.08795,0.149167 -0.06401,0.12066 c -0.09696,0.182769 -0.411407,0.502575 -0.609334,0.619716 -0.30819,0.1824 -1.01561,0.379594 -1.351054,0.376608 -0.09882,-8.79e-4 -0.260524,-0.0191 -0.359344,-0.0405 z"
     title="Flevoland"
     id="NL-FL" />
  <path
     d="m 15.446207,12.767921 c -0.03041,-0.0078 -0.11359,-0.03269 -0.184854,-0.05543 -0.210177,-0.06705 -0.372885,-0.280439 -0.579797,-0.760374 -0.08657,-0.200805 -0.106066,-0.278764 -0.106066,-0.424165 0,-0.09798 -0.01176,-0.299909 -0.02613,-0.448735 C 14.53499,10.930392 14.51002,10.65936 14.49387,10.476924 14.47772,10.294487 14.440274,9.8715673 14.410656,9.5371015 14.27963,8.0574797 14.252419,7.6520883 14.20192,6.4273981 14.154852,5.2859089 14.148248,3.329757 14.189398,2.7186843 14.27512,1.4457587 14.547574,0.79728414 15.05818,0.65087469 c 0.06138,-0.0176013 0.149809,-0.0435983 0.196497,-0.0577712 0.113987,-0.0346021 0.639819,-0.0331131 0.661441,0.001873 0.0094,0.015203 0.04282,0.0276418 0.07428,0.0276418 0.08197,0 0.338875,0.15351908 0.42178,0.25204618 0.321534,0.38212133 0.517193,1.35960093 0.621804,3.10643353 0.05349,0.8931159 0.05971,1.0260409 0.08544,1.8243593 0.03982,1.2355435 0.122507,2.9736253 0.163061,3.4275842 0.01494,0.1672329 0.04,0.459545 0.0557,0.6495825 0.07871,0.953156 0.190139,1.835215 0.268463,2.125106 0.01528,0.05654 -0.02313,0.105521 -0.272949,0.348186 -0.425784,0.413586 -0.418505,0.411033 -1.195882,0.419317 -0.349977,0.0037 -0.661199,4.39e-4 -0.691605,-0.0073 z"
     title="Friesland"
     id="NL-FR" />
  <path
     d="m 19.965643,12.729121 c -0.296431,-0.02934 -0.827353,-0.127739 -1.133314,-0.210041 -0.293513,-0.07895 -0.556823,-0.206645 -0.63743,-0.30912 -0.116356,-0.147923 -0.132113,-0.409672 -0.05524,-0.917602 0.159225,-1.052049 0.193503,-1.7529393 0.222377,-4.5470771 0.02569,-2.4861142 0.04066,-2.8142186 0.163943,-3.5934351 0.130452,-0.8245291 0.367679,-1.324777 0.708343,-1.493703 0.09034,-0.0448 0.167101,-0.054238 0.441081,-0.054238 0.450891,0 0.607306,0.050482 0.817751,0.2639232 0.174691,0.1771792 0.251708,0.30351 0.378353,0.6206146 0.388164,0.9719208 0.503977,2.3724232 0.503787,6.092181 -8.3e-5,1.8151954 0.04301,2.7099204 0.161631,3.3552574 l 0.0497,0.270358 -0.229589,0.164222 c -0.312343,0.223417 -0.420644,0.274262 -0.712482,0.334495 -0.263895,0.05446 -0.343995,0.05732 -0.678908,0.02416 z"
     title="Gelderland"
     id="NL-GE" />
  <path
     d="m 24.415974,13.903778 c -0.799741,-0.125386 -1.750286,-0.524168 -2.042372,-0.856835 -0.148104,-0.16868 -0.266815,-0.495513 -0.222406,-0.612319 0.07821,-0.205706 0.215955,-0.955192 0.298837,-1.625999 0.11513,-0.9318118 0.154745,-1.5775852 0.197548,-3.220271 0.01604,-0.6157213 0.0416,-1.2438814 0.05678,-1.3959113 0.04751,-0.4755942 0.08429,-0.77038 0.108647,-0.870717 0.01292,-0.05321 0.03758,-0.1713792 0.0548,-0.2625971 0.112616,-0.5965545 0.3552,-1.0118162 0.670247,-1.147346 0.192148,-0.08266 0.608848,-0.088159 0.743007,-0.00981 0.42524,0.2483534 0.608787,1.1724759 0.691001,3.4790637 0.03387,0.9501286 0.02004,2.8641377 -0.02945,4.0771667 -0.01458,0.35727 -0.0391,0.962093 -0.0545,1.34405 -0.0154,0.381956 -0.03642,0.795547 -0.04673,0.91909 l -0.01873,0.224623 -0.08586,-0.0027 c -0.04722,-0.0015 -0.191592,-0.01925 -0.320817,-0.03951 z"
     title="Groningen"
     id="NL-GR" />
  <path
     d="m 13.346305,28.156617 c -0.06985,-0.220068 -0.453362,-0.657258 -1.164042,-1.326956 -0.135611,-0.12779 -0.61351,-0.59497 -1.061999,-1.038177 C 10.421868,25.101311 9.7263494,24.450627 9.3826088,24.16584 l -0.092582,-0.0767 0.1811888,-0.43467 c 0.6941714,-1.66531 0.9923014,-2.81686 1.0318064,-3.985444 0.01717,-0.508043 0.018,-0.513343 0.09309,-0.599885 0.105824,-0.121957 0.152321,-0.289165 0.217844,-0.783403 0.101522,-0.765764 0.120277,-1.296374 0.101611,-2.874748 -0.0096,-0.813361 -0.02459,-1.549778 -0.03327,-1.636484 l -0.01578,-0.157648 0.354916,0.163292 c 0.484517,0.222917 0.742647,0.288312 1.128887,0.285991 0.256205,-0.0015 0.36279,-0.01729 0.677224,-0.100069 0.513681,-0.135235 0.658291,-0.194105 0.940513,-0.382881 0.264967,-0.177233 0.407897,-0.322583 0.600975,-0.611151 l 0.124546,-0.186142 0.09858,0.08656 c 0.137436,0.120671 0.399907,0.236562 0.612577,0.270476 0.226642,0.03614 0.899455,0.03661 1.243881,8.55e-4 0.373399,-0.03876 0.537198,-0.125354 0.902333,-0.477042 l 0.288436,-0.277814 0.102571,0.09957 c 0.05641,0.05476 0.173514,0.142098 0.260221,0.194083 0.3218,0.192934 1.259316,0.40265 1.908807,0.426989 0.597292,0.02238 0.927436,-0.06185 1.336126,-0.34088 0.285049,-0.194618 0.276113,-0.195552 0.368366,0.03849 0.145674,0.369579 0.308428,0.570277 0.646284,0.796956 0.400234,0.268532 1.220106,0.562966 1.843637,0.662092 0.570775,0.09074 0.512006,0.07006 0.506425,0.178182 -0.0051,0.09952 -0.04527,1.007135 -0.09102,2.058427 -0.01456,0.334466 -0.03913,1.217622 -0.0546,1.962568 -0.03092,1.488719 -0.04499,1.89611 -0.08685,2.515405 -0.02829,0.418498 -0.113594,1.198388 -0.161762,1.478837 -0.138525,0.806524 -0.241977,1.237024 -0.448366,1.865822 -0.02994,0.09122 -0.06485,0.190728 -0.07757,0.221134 -0.01272,0.03041 -0.05137,0.129917 -0.08588,0.221135 -0.121611,0.321418 -0.272713,0.637779 -0.610451,1.278102 -0.56518,1.071531 -0.669376,1.352813 -0.705642,1.904902 l -0.01697,0.258401 h -4.554866 c -4.450878,0 -4.555247,-0.0012 -4.571538,-0.05253 z"
     title="Limburg"
     id="NL-LI" />
</svg>
</svg>
